<svg width="397" height="110" viewBox="0 0 397 110" fill="none" xmlns="http://www.w3.org/2000/svg">
<path fill-rule="evenodd" clip-rule="evenodd" d="M145.751 93.7259L89.3453 0L68.9399 33.9064C79.4788 41.4652 86.3447 53.8204 86.3447 67.7792C86.3447 77.5897 82.9533 86.6081 77.2789 93.7259H145.751Z" fill="#1E7FDB"/>
<circle cx="41.656" cy="68.344" r="41.656" fill="#F08522"/>
<path d="M185.214 54H178.057V41.5312H167.454V54H160.256V24.1406H167.454V35.9941H178.057V24.1406H185.214V54ZM208.366 48.4219H198.502L196.779 54H189.089L200.04 24.1406H206.808L217.841 54H210.109L208.366 48.4219ZM200.225 42.8643H206.644L203.424 32.5078L200.225 42.8643ZM221.285 54V24.1406H232.011C235.853 24.1406 238.771 24.8447 240.768 26.2529C242.777 27.6611 243.782 29.7051 243.782 32.3848C243.782 33.9297 243.427 35.249 242.716 36.3428C242.005 37.4365 240.959 38.2432 239.578 38.7627C241.137 39.1729 242.333 39.9385 243.167 41.0596C244.001 42.1807 244.418 43.5479 244.418 45.1611C244.418 48.0869 243.488 50.2881 241.629 51.7646C239.783 53.2275 237.042 53.9727 233.405 54H221.285ZM228.483 41.3057V48.4629H233.2C234.499 48.4629 235.497 48.1689 236.194 47.5811C236.892 46.9795 237.24 46.1387 237.24 45.0586C237.24 42.5703 236.003 41.3193 233.528 41.3057H228.483ZM228.483 36.5889H232.236C233.809 36.5752 234.93 36.2881 235.6 35.7275C236.27 35.167 236.604 34.3398 236.604 33.2461C236.604 31.9883 236.242 31.0859 235.518 30.5391C234.793 29.9785 233.624 29.6982 232.011 29.6982H228.483V36.5889ZM257.316 54H250.139V24.1406H257.316V54ZM286.396 29.6982H277.434V54H270.235V29.6982H261.438V24.1406H286.396V29.6982Z" fill="#1E7FDB"/>
<path d="M164.169 75.2588V85H160.888V60.1172H170.065C172.788 60.1172 174.919 60.8122 176.457 62.2021C178.007 63.5921 178.781 65.4321 178.781 67.7222C178.781 70.1375 178.024 72.0003 176.508 73.3105C175.004 74.6094 172.845 75.2588 170.031 75.2588H164.169ZM164.169 72.5757H170.065C171.82 72.5757 173.164 72.1655 174.099 71.3452C175.033 70.5135 175.5 69.3172 175.5 67.7563C175.5 66.2752 175.033 65.0903 174.099 64.2017C173.164 63.313 171.883 62.8516 170.253 62.8174H164.169V72.5757ZM193.344 74.9341H187.5V85H184.201V60.1172H192.438C195.241 60.1172 197.395 60.7552 198.898 62.0312C200.414 63.3073 201.171 65.1644 201.171 67.6025C201.171 69.152 200.75 70.5021 199.907 71.6528C199.075 72.8035 197.913 73.6637 196.42 74.2334L202.265 84.7949V85H198.745L193.344 74.9341ZM187.5 72.251H192.541C194.17 72.251 195.463 71.8294 196.42 70.9863C197.389 70.1432 197.873 69.0153 197.873 67.6025C197.873 66.0645 197.412 64.8853 196.489 64.0649C195.577 63.2446 194.256 62.8288 192.524 62.8174H187.5V72.251ZM226.176 73.3618C226.176 75.8 225.766 77.9305 224.946 79.7534C224.125 81.5649 222.963 82.9492 221.459 83.9062C219.956 84.8633 218.201 85.3418 216.196 85.3418C214.236 85.3418 212.499 84.8633 210.983 83.9062C209.468 82.9378 208.289 81.5649 207.446 79.7876C206.614 77.9989 206.187 75.931 206.164 73.584V71.7896C206.164 69.397 206.58 67.2835 207.412 65.4492C208.243 63.6149 209.417 62.2135 210.932 61.2451C212.459 60.2653 214.202 59.7754 216.162 59.7754C218.155 59.7754 219.91 60.2596 221.425 61.228C222.952 62.1851 224.125 63.5807 224.946 65.415C225.766 67.238 226.176 69.3628 226.176 71.7896V73.3618ZM222.912 71.7554C222.912 68.8045 222.32 66.543 221.135 64.9707C219.95 63.387 218.292 62.5952 216.162 62.5952C214.088 62.5952 212.453 63.387 211.257 64.9707C210.072 66.543 209.462 68.7305 209.428 71.5332V73.3618C209.428 76.2215 210.026 78.4717 211.223 80.1123C212.43 81.7415 214.088 82.5562 216.196 82.5562C218.315 82.5562 219.956 81.7871 221.118 80.249C222.28 78.6995 222.878 76.4836 222.912 73.6011V71.7554ZM242.773 60.1172H246.071V77.7368C246.071 80.118 245.354 81.9808 243.918 83.3252C242.494 84.6696 240.591 85.3418 238.21 85.3418C235.738 85.3418 233.812 84.7095 232.434 83.4448C231.055 82.1802 230.366 80.4085 230.366 78.1299H233.647C233.647 79.554 234.034 80.6649 234.809 81.4624C235.595 82.2599 236.729 82.6587 238.21 82.6587C239.566 82.6587 240.66 82.2314 241.491 81.377C242.334 80.5225 242.762 79.3262 242.773 77.7881V60.1172ZM266.975 73.4985H256.191V82.3169H268.718V85H252.91V60.1172H268.547V62.8174H256.191V70.8154H266.975V73.4985ZM292.355 77.1045C292.048 79.7363 291.074 81.77 289.433 83.2056C287.804 84.6297 285.633 85.3418 282.922 85.3418C279.982 85.3418 277.624 84.2879 275.847 82.1802C274.081 80.0724 273.198 77.2526 273.198 73.7207V71.3281C273.198 69.0153 273.608 66.9816 274.428 65.2271C275.26 63.4725 276.433 62.1281 277.949 61.1938C279.464 60.2482 281.219 59.7754 283.212 59.7754C285.856 59.7754 287.975 60.516 289.57 61.9971C291.165 63.4668 292.093 65.5062 292.355 68.1152H289.057C288.772 66.1328 288.151 64.6973 287.194 63.8086C286.249 62.9199 284.921 62.4756 283.212 62.4756C281.116 62.4756 279.47 63.2503 278.273 64.7998C277.089 66.3493 276.496 68.5539 276.496 71.4136V73.8232C276.496 76.5234 277.06 78.6711 278.188 80.2661C279.316 81.8612 280.894 82.6587 282.922 82.6587C284.745 82.6587 286.14 82.2485 287.109 81.4282C288.089 80.5965 288.738 79.1553 289.057 77.1045H292.355ZM314.78 62.8174H306.782V85H303.518V62.8174H295.537V60.1172H314.78V62.8174Z" fill="#F08522"/>
</svg>
