<svg width="121" height="118" viewBox="0 0 121 118" fill="none" xmlns="http://www.w3.org/2000/svg">
<path fill-rule="evenodd" clip-rule="evenodd" d="M60.3906 0C46.0499 0.000853943 32.1776 5.10464 21.2558 14.3981C10.334 23.6915 3.07561 36.5681 0.779376 50.7236C-1.51686 64.8792 1.29894 79.39 8.72292 91.6594C16.1469 103.929 27.6946 113.156 41.2995 117.69C44.3176 118.249 45.4256 116.379 45.4256 114.79C45.4256 113.35 45.3706 108.59 45.3436 103.547C28.5436 107.2 24.9996 96.422 24.9996 96.422C22.2526 89.442 18.2995 87.586 18.2995 87.586C12.8195 83.838 18.7125 83.915 18.7125 83.915C24.7755 84.34 27.9686 90.138 27.9686 90.138C33.3546 99.37 42.0956 96.701 45.5426 95.158C46.0846 91.258 47.6485 88.59 49.3765 87.083C35.9635 85.556 21.8625 80.378 21.8625 57.239C21.7781 51.2373 24.0064 45.4332 28.0856 41.03C27.4586 39.508 25.3906 33.367 28.6706 25.048C28.6706 25.048 33.7415 23.426 45.2805 31.239C55.1795 28.5297 65.6246 28.5297 75.5235 31.239C87.0495 23.426 92.1135 25.048 92.1135 25.048C95.4005 33.367 93.3336 39.508 92.7066 41.03C96.7863 45.4323 99.0119 51.2377 98.9205 57.239C98.9205 80.433 84.7945 85.539 71.3465 87.039C73.5125 88.913 75.4465 92.588 75.4465 98.221C75.4465 106.301 75.3775 112.804 75.3775 114.794C75.3775 116.401 76.4646 118.284 79.5246 117.694C93.1189 113.148 104.653 103.915 112.066 91.6463C119.479 79.3774 122.286 64.872 119.987 50.7233C117.688 36.5745 110.431 23.7047 99.5148 14.4145C88.5985 5.12427 74.7339 0.0192525 60.3996 0.0120239L60.3906 0Z" fill="white"/>
<path d="M22.8756 86.704C22.7426 87.004 22.2696 87.094 21.8396 86.888C21.4096 86.682 21.1565 86.282 21.2975 85.981C21.4385 85.68 21.8976 85.586 22.3376 85.792C22.7776 85.998 23.0266 86.403 22.8756 86.704Z" fill="white"/>
<path d="M25.3216 89.432C25.0336 89.699 24.4696 89.575 24.0876 89.153C23.9036 89.0058 23.7829 88.7938 23.7502 88.5605C23.7174 88.3272 23.7752 88.0902 23.9116 87.898C24.2116 87.631 24.7536 87.756 25.1496 88.177C25.5456 88.598 25.6226 89.162 25.3216 89.432Z" fill="white"/>
<path d="M27.7026 92.91C27.3326 93.167 26.7266 92.926 26.3526 92.389C25.9786 91.852 25.9826 91.208 26.3616 90.95C26.7406 90.692 27.3325 90.924 27.7115 91.457C28.0905 91.99 28.0806 92.647 27.7026 92.91Z" fill="white"/>
<path d="M30.9636 96.27C30.6326 96.635 29.9276 96.537 29.4126 96.039C29.1709 95.8728 29.0012 95.6213 28.9374 95.3351C28.8736 95.0489 28.9204 94.7491 29.0686 94.496C29.4046 94.13 30.1136 94.233 30.6326 94.727C31.1516 95.221 31.3166 95.909 30.9636 96.27Z" fill="white"/>
<path d="M35.4636 98.221C35.3176 98.694 34.6386 98.909 33.9556 98.708C33.2726 98.507 32.8256 97.947 32.9626 97.469C33.0996 96.991 33.7876 96.769 34.4756 96.984C35.1636 97.199 35.6056 97.74 35.4636 98.221Z" fill="white"/>
<path d="M40.4065 98.583C40.4225 99.083 39.8425 99.494 39.1255 99.502C38.4085 99.51 37.8185 99.116 37.8105 98.625C37.8025 98.134 38.3775 97.7141 39.0995 97.7021C39.8215 97.6901 40.4065 98.088 40.4065 98.583Z" fill="white"/>
<path d="M45.0045 97.8C45.0905 98.286 44.5916 98.785 43.8786 98.917C43.1656 99.049 42.5296 98.7461 42.4396 98.2641C42.3526 97.7641 42.8605 97.264 43.5605 97.138C44.2605 97.012 44.9145 97.306 45.0045 97.8Z" fill="white"/>
</svg>
