<svg width="41" height="41" viewBox="0 0 41 41" fill="none" xmlns="http://www.w3.org/2000/svg">
<path d="M34.8333 14.5696V6.16668H26.4304L20.5 0.236267L14.5696 6.16668H6.16668V14.5696L0.236267 20.5L6.16668 26.4304V34.8333H14.5696L20.5 40.7638L26.4304 34.8333H34.8333V26.4304L40.7638 20.5L34.8333 14.5696ZM20.5 31.25C14.5696 31.25 9.75002 26.4304 9.75002 20.5C9.75002 14.5696 14.5696 9.75002 20.5 9.75002C26.4304 9.75002 31.25 14.5696 31.25 20.5C31.25 26.4304 26.4304 31.25 20.5 31.25ZM20.5 13.3334C16.5404 13.3334 13.3334 16.5404 13.3334 20.5C13.3334 24.4596 16.5404 27.6667 20.5 27.6667C24.4596 27.6667 27.6667 24.4596 27.6667 20.5C27.6667 16.5404 24.4596 13.3334 20.5 13.3334Z" fill="#F08522"/>
</svg>
