<svg width="291" height="265" viewBox="0 0 291 265" fill="none" xmlns="http://www.w3.org/2000/svg">
<path fill-rule="evenodd" clip-rule="evenodd" d="M256.296 156.524L163.302 2L129.66 57.9008C147.035 70.3627 158.354 90.7324 158.354 113.746C158.354 129.92 152.763 144.789 143.408 156.524H256.296Z" fill="#1E7FDB"/>
<circle cx="84.6772" cy="114.677" r="68.6772" fill="#F08522"/>
<path d="M48.2139 230H41.0566V217.531H30.4541V230H23.2559V200.141H30.4541V211.994H41.0566V200.141H48.2139V230ZM71.3662 224.422H61.502L59.7793 230H52.0889L63.04 200.141H69.8076L80.8408 230H73.1094L71.3662 224.422ZM63.2246 218.864H69.6436L66.4238 208.508L63.2246 218.864ZM84.2852 230V200.141H95.0107C98.8525 200.141 101.771 200.845 103.768 202.253C105.777 203.661 106.782 205.705 106.782 208.385C106.782 209.93 106.427 211.249 105.716 212.343C105.005 213.437 103.959 214.243 102.578 214.763C104.137 215.173 105.333 215.938 106.167 217.06C107.001 218.181 107.418 219.548 107.418 221.161C107.418 224.087 106.488 226.288 104.629 227.765C102.783 229.228 100.042 229.973 96.4053 230H84.2852ZM91.4834 217.306V224.463H96.2002C97.499 224.463 98.4971 224.169 99.1943 223.581C99.8916 222.979 100.24 222.139 100.24 221.059C100.24 218.57 99.0029 217.319 96.5283 217.306H91.4834ZM91.4834 212.589H95.2363C96.8086 212.575 97.9297 212.288 98.5996 211.728C99.2695 211.167 99.6045 210.34 99.6045 209.246C99.6045 207.988 99.2422 207.086 98.5176 206.539C97.793 205.979 96.624 205.698 95.0107 205.698H91.4834V212.589ZM120.316 230H113.139V200.141H120.316V230ZM149.396 205.698H140.434V230H133.235V205.698H124.438V200.141H149.396V205.698Z" fill="#1E7FDB"/>
<path d="M27.1694 251.259V261H23.8882V236.117H33.0654C35.7884 236.117 37.9189 236.812 39.457 238.202C41.0065 239.592 41.7812 241.432 41.7812 243.722C41.7812 246.138 41.0236 248 39.5083 249.311C38.0044 250.609 35.8454 251.259 33.0312 251.259H27.1694ZM27.1694 248.576H33.0654C34.82 248.576 36.1644 248.166 37.0986 247.345C38.0329 246.514 38.5 245.317 38.5 243.756C38.5 242.275 38.0329 241.09 37.0986 240.202C36.1644 239.313 34.8826 238.852 33.2534 238.817H27.1694V248.576ZM56.3442 250.934H50.4995V261H47.2012V236.117H55.4385C58.2412 236.117 60.3945 236.755 61.8984 238.031C63.4137 239.307 64.1714 241.164 64.1714 243.603C64.1714 245.152 63.7498 246.502 62.9067 247.653C62.075 248.804 60.9129 249.664 59.4204 250.233L65.2651 260.795V261H61.7446L56.3442 250.934ZM50.4995 248.251H55.541C57.1702 248.251 58.4634 247.829 59.4204 246.986C60.3888 246.143 60.873 245.015 60.873 243.603C60.873 242.064 60.4116 240.885 59.4888 240.065C58.5773 239.245 57.2557 238.829 55.5239 238.817H50.4995V248.251ZM89.1763 249.362C89.1763 251.8 88.7661 253.931 87.9458 255.753C87.1255 257.565 85.9634 258.949 84.4595 259.906C82.9556 260.863 81.201 261.342 79.1958 261.342C77.2362 261.342 75.4987 260.863 73.9834 259.906C72.4681 258.938 71.2889 257.565 70.4458 255.788C69.6141 253.999 69.1868 251.931 69.1641 249.584V247.79C69.1641 245.397 69.5799 243.284 70.4116 241.449C71.2433 239.615 72.4168 238.214 73.9321 237.245C75.4588 236.265 77.202 235.775 79.1616 235.775C81.1554 235.775 82.91 236.26 84.4253 237.228C85.952 238.185 87.1255 239.581 87.9458 241.415C88.7661 243.238 89.1763 245.363 89.1763 247.79V249.362ZM85.9121 247.755C85.9121 244.805 85.3197 242.543 84.1348 240.971C82.9499 239.387 81.2922 238.595 79.1616 238.595C77.0881 238.595 75.4531 239.387 74.2568 240.971C73.0719 242.543 72.4624 244.73 72.4282 247.533V249.362C72.4282 252.222 73.0264 254.472 74.2227 256.112C75.4303 257.742 77.0881 258.556 79.1958 258.556C81.3149 258.556 82.9556 257.787 84.1177 256.249C85.2798 254.7 85.8779 252.484 85.9121 249.601V247.755ZM105.773 236.117H109.071V253.737C109.071 256.118 108.354 257.981 106.918 259.325C105.494 260.67 103.591 261.342 101.21 261.342C98.7376 261.342 96.8122 260.709 95.4336 259.445C94.055 258.18 93.3657 256.409 93.3657 254.13H96.647C96.647 255.554 97.0343 256.665 97.8091 257.462C98.5952 258.26 99.7288 258.659 101.21 258.659C102.566 258.659 103.66 258.231 104.491 257.377C105.334 256.522 105.762 255.326 105.773 253.788V236.117ZM129.975 249.499H119.191V258.317H131.718V261H115.91V236.117H131.547V238.817H119.191V246.815H129.975V249.499ZM155.355 253.104C155.048 255.736 154.074 257.77 152.433 259.206C150.804 260.63 148.633 261.342 145.922 261.342C142.982 261.342 140.624 260.288 138.847 258.18C137.081 256.072 136.198 253.253 136.198 249.721V247.328C136.198 245.015 136.608 242.982 137.428 241.227C138.26 239.472 139.433 238.128 140.949 237.194C142.464 236.248 144.219 235.775 146.212 235.775C148.856 235.775 150.975 236.516 152.57 237.997C154.165 239.467 155.093 241.506 155.355 244.115H152.057C151.772 242.133 151.151 240.697 150.194 239.809C149.249 238.92 147.921 238.476 146.212 238.476C144.116 238.476 142.47 239.25 141.273 240.8C140.089 242.349 139.496 244.554 139.496 247.414V249.823C139.496 252.523 140.06 254.671 141.188 256.266C142.316 257.861 143.894 258.659 145.922 258.659C147.745 258.659 149.14 258.249 150.109 257.428C151.089 256.597 151.738 255.155 152.057 253.104H155.355ZM177.78 238.817H169.782V261H166.518V238.817H158.537V236.117H177.78V238.817Z" fill="#F08522"/>
</svg>
